<svg xmlns="http://www.w3.org/2000/svg" width="1555" height="439"><clipPath id="a"><path d="M-11653-7257H2629V772h-14282z"/></clipPath><g fill="#333e47" fill-rule="evenodd" clip-path="url(#a)"><path d="M.4 364.3h240.4V381H.4zm82.1-145.1H.4V2.7h83.1c77 0 121.6 44.7 121.6 106.7v1c0 63-44.6 108.8-122.6 108.8m-22.4-52.9h24.4c35.5 0 59.7-20.3 59.7-54.8v-1.1c0-34.5-24.2-54.8-59.7-54.8H60.1zm242.4 2h114.4v50.8H243.2V2.6h171.7v50.8H302.5V87h91.4v46.7h-91.4zm145.4-56.9C447.9 49.4 496.7.3 561.5.3c44.6 0 73.2 18 92.4 44.1l-45.6 35c-12.3-16-26.4-25-46.8-25-30.3 0-51.8 25-51.8 56v1c0 32 21.5 57.1 51.8 57.1 22.4 0 35.5-11 48.8-26l44.6 31c-20.2 28-47.8 48-95.4 48-61.9 0-111.6-46-111.6-110.1m654.5 107.7H926.3V2.7h175.1v50.8h-115V87h92.6v46.8h-92.6v34.5h116zm242.8 0h-67.7l-42.8-65h-25v65H1150V2.7h100.6c32.9 0 54.7 9.1 69.6 23.4 12.1 12.1 18 29.4 18 50.8 0 33.5-16.8 55.9-42.8 67zm-97.6-164.6h-37.9v51.8h37.9c20.8 0 31.9-9.1 31.9-25.4 0-17.2-12.1-26.4-31.9-26.4m307 97.4c0 43.8-34.9 69.6-85.8 69.6-37.9 0-73.8-11.9-99.8-35.8l32.9-38.8c21 16.9 43.8 25.9 68.8 25.9 16.1 0 24-6 24-15 0-8.9-6.9-13.9-35.9-20.8-45-10-79.9-22.9-79.9-66.7 0-39.8 30.9-67.6 81.9-67.6 36.9 0 64.9 8.9 87.9 27.8l-30 40.8c-19-12.9-39.8-20.9-58.9-20.9-15 0-22 7-22 13.9v1c0 10 7.9 14 36.9 19.9 49 11 79.9 26.9 79.9 66.7m-804.4 67.2h-59.6V2.7h59.6v88.4l73.5-88.4h70.6l-94.8 108.7 95.8 107.7h-71.6l-73.5-87.4zm564 145.1h240.4v16.7h-240.4zM407.4 404.1c0 22.6-18.2 34-44.4 34h-55.6V316.7H361c24.2 0 39.3 11.3 39.3 30.9 0 14.4-8 22.6-17.1 26.7 14.1 5.2 24.2 13.4 24.2 29.8m-78.7-37h28.1c13.3 0 22.2-5.1 22.2-16.4 0-9.3-6.9-15.4-20-15.4h-30.3zm57.5 34.9c0-10.3-8.2-16.4-24.2-16.4h-33.3v32.9H363c14.1 0 23.2-5.2 23.2-16.5m159.2-10.3 31 46.3h-24l-29-42.1h-26V438h-21V316.7h53c27 0 44 14.4 44 38 0 20.6-12.1 32.9-28 37m-18-15.4c15.1 0 25-8.2 25-20.5 0-13.4-8.9-19.6-25-19.6h-30v40.1zM702 316.7 754.9 438h-22.4l-12.1-29.6h-57.1L651.2 438h-22.4l53-121.3zm-31.6 73.4h41.9l-20.5-47.9zm248.8-73.4V438h-18.3l-66-86.4V438h-20.5V316.7h19.3l64 83.2v-83.2zm180.9 60.6c0 34-25.9 60.7-63 60.7H993V316.7h44.1c37.1 0 63 25.7 63 60.6m-22 0c0-23.6-16-41.1-41-41.1h-23v82.3h23c25 0 41-17.5 41-41.2m172 24.2c0 22.3-16.9 36.5-41.7 36.5-18 0-34.9-7.1-48.8-19.3l12.9-15.2c10.9 10.1 21.8 15.2 36.9 15.2 12.9 0 20.8-6.1 20.8-15.2s-4.9-13.2-26.9-18.2c-24.8-6.1-38.7-14.2-38.7-36.5 0-20.3 16.9-34.5 39.7-34.5 17 0 30.9 5.1 42.8 15.2l-10.9 16.2c-10.9-8.1-20.8-13.1-31.9-13.1-11.9 0-19.9 7.1-19.9 15.2 0 9.1 6 13.1 29 18.2 23.8 6.1 36.7 15.2 36.7 35.5"/></g></svg>