<svg width="29.516px" height="29.516px" viewBox="0 -3.44 29.516 29.516" id="_13_-_Folder" data-name="13 - Folder" xmlns="http://www.w3.org/2000/svg">
  <path id="_13_-_Folder-2" data-name="13 - Folder" d="M30.758,11.309a3,3,0,0,0-3-3H17V5.182a1,1,0,0,0-1-1H4.242a3,3,0,0,0-3,3V23.818a3,3,0,0,0,3,3H27.758a3,3,0,0,0,3-3V11.309Zm-2,0V23.818a1,1,0,0,1-1,1H4.242a1,1,0,0,1-1-1V7.182a1,1,0,0,1,1-1H15V9.309a1,1,0,0,0,1,1H27.758a1,1,0,0,1,1,1Z" transform="translate(-1.242 -4.182)" fill-rule="evenodd"/>
</svg>
