<svg width="30.5px" height="30.5px" viewBox="-3.13 0 30.5 30.5" id="_05_-_Location" data-name="05 - Location" xmlns="http://www.w3.org/2000/svg">
  <path id="Path_223" data-name="Path 223" d="M16,7.4a4.925,4.925,0,1,0,4.925,4.925A4.928,4.928,0,0,0,16,7.4Zm0,2a2.925,2.925,0,1,1-2.925,2.925A2.927,2.927,0,0,1,16,9.4Z" transform="translate(-3.878 -1)" fill-rule="evenodd"/>
  <path id="Path_224" data-name="Path 224" d="M16,1A12.128,12.128,0,0,0,3.878,13.122,18.744,18.744,0,0,0,7.994,24.293a31.929,31.929,0,0,0,7.47,7.051,1,1,0,0,0,1.072,0,31.929,31.929,0,0,0,7.47-7.051,18.744,18.744,0,0,0,4.116-11.171A12.128,12.128,0,0,0,16,1Zm0,2A10.127,10.127,0,0,1,26.122,13.122a16.749,16.749,0,0,1-3.714,9.97A30.284,30.284,0,0,1,16,29.29a30.284,30.284,0,0,1-6.408-6.2,16.749,16.749,0,0,1-3.714-9.97A10.127,10.127,0,0,1,16,3Z" transform="translate(-3.878 -1)" fill-rule="evenodd"/>
</svg>
