<svg width="29.82px" height="29.82px" viewBox="0 -4.17 29.82 29.82" id="_10_-_Recent_App" data-name="10 - Recent App" xmlns="http://www.w3.org/2000/svg">
  <path id="Path_170" data-name="Path 170" d="M30.91,7.392v0A2.39,2.39,0,0,0,28.52,5H3.48A2.39,2.39,0,0,0,1.09,7.39v0a2.39,2.39,0,0,0,2.39,2.39H28.52A2.39,2.39,0,0,0,30.91,7.392Zm-2,0v0a.391.391,0,0,1-.39.39H3.48a.391.391,0,0,1-.39-.39v0A.391.391,0,0,1,3.48,7H28.52A.391.391,0,0,1,28.91,7.39Z" transform="translate(-1.09 -5)" fill-rule="evenodd"/>
  <path id="Path_171" data-name="Path 171" d="M30.91,15.738v0a2.39,2.39,0,0,0-2.39-2.39H3.48a2.39,2.39,0,0,0-2.39,2.39v0a2.39,2.39,0,0,0,2.39,2.39H28.52A2.39,2.39,0,0,0,30.91,15.738Zm-2,0v0a.391.391,0,0,1-.39.39H3.48a.391.391,0,0,1-.39-.39v0a.391.391,0,0,1,.39-.39H28.52A.391.391,0,0,1,28.91,15.736Z" transform="translate(-1.09 -5)" fill-rule="evenodd"/>
  <path id="Path_172" data-name="Path 172" d="M30.91,24.084v0a2.39,2.39,0,0,0-2.39-2.39H3.48a2.39,2.39,0,0,0-2.39,2.39v0a2.39,2.39,0,0,0,2.39,2.39H28.52A2.39,2.39,0,0,0,30.91,24.084Zm-2,0v0a.391.391,0,0,1-.39.39H3.48a.391.391,0,0,1-.39-.39v0a.391.391,0,0,1,.39-.39H28.52A.391.391,0,0,1,28.91,24.082Z" transform="translate(-1.09 -5)" fill-rule="evenodd"/>
</svg>
