<svg width="30.171px" height="30.171px" viewBox="-1.59 0 30.171 30.171" id="_06_-_Setting" data-name="06 - Setting" xmlns="http://www.w3.org/2000/svg">
  <path id="Path_225" data-name="Path 225" d="M29.5,8.714a3,3,0,0,0-1.753-2.728l-10.5-4.8a3,3,0,0,0-2.494,0l-10.5,4.8A3,3,0,0,0,2.5,8.714V23.286a3,3,0,0,0,1.753,2.728l10.5,4.8a3,3,0,0,0,2.494,0l10.5-4.8A3,3,0,0,0,29.5,23.286V8.714Zm-2,0V23.286a1,1,0,0,1-.584.909l-10.5,4.8a1.006,1.006,0,0,1-.832,0l-10.5-4.8a1,1,0,0,1-.584-.909V8.714A1,1,0,0,1,5.085,7.8L15.584,3a1.006,1.006,0,0,1,.832,0l10.5,4.8A1,1,0,0,1,27.5,8.714Z" transform="translate(-2.501 -0.914)" fill-rule="evenodd"/>
  <path id="Path_226" data-name="Path 226" d="M16,10.715A5.285,5.285,0,1,0,21.285,16,5.287,5.287,0,0,0,16,10.715Zm0,2A3.285,3.285,0,1,1,12.715,16,3.287,3.287,0,0,1,16,12.715Z" transform="translate(-2.501 -0.914)" fill-rule="evenodd"/>
</svg>
