<svg width="29.462px" height="29.462px" viewBox="0 -3.79 29.462 29.462" id="_03_-_Volume_Max" data-name="03 - Volume Max" xmlns="http://www.w3.org/2000/svg">
  <path id="Path_154" data-name="Path 154" d="M19.581,8.058a3,3,0,0,0-4.79-2.407L7.034,11.423H4a3,3,0,0,0-3,3v3.154a3,3,0,0,0,3,3H7.034l7.757,5.772a3,3,0,0,0,4.79-2.407Zm-2,0V23.942a1,1,0,0,1-1.6.8L7.962,18.775a1,1,0,0,0-.6-.2H4a1,1,0,0,1-1-1V14.423a1,1,0,0,1,1-1H7.365a1,1,0,0,0,.6-.2l8.022-5.969a1,1,0,0,1,1.6.8Z" transform="translate(-1 -5.058)" fill-rule="evenodd"/>
  <path id="Path_155" data-name="Path 155" d="M21.094,14.046a2.438,2.438,0,0,1,0,3.908,1,1,0,0,0,1.2,1.6,4.438,4.438,0,0,0,0-7.112,1,1,0,0,0-1.2,1.6Z" transform="translate(-1 -5.058)" fill-rule="evenodd"/>
  <path id="Path_156" data-name="Path 156" d="M21.716,10.966a5.428,5.428,0,0,1,0,10.068,1,1,0,0,0,.75,1.855,7.43,7.43,0,0,0,0-13.778,1,1,0,0,0-.75,1.855Z" transform="translate(-1 -5.058)" fill-rule="evenodd"/>
  <path id="Path_157" data-name="Path 157" d="M23.2,8.62A7.489,7.489,0,0,1,28.462,16,7.489,7.489,0,0,1,23.2,23.38a1,1,0,0,0,.517,1.932A9.5,9.5,0,0,0,30.462,16,9.5,9.5,0,0,0,23.72,6.688,1,1,0,0,0,23.2,8.62Z" transform="translate(-1 -5.058)" fill-rule="evenodd"/>
</svg>
