<svg width="23.46px" height="23.46px" viewBox="0 -0.79 23.46 23.46" id="_05_-_Volume_Low" data-name="05 - Volume Low" xmlns="http://www.w3.org/2000/svg">
  <path id="Path_161" data-name="Path 161" d="M22.852,8.058a3,3,0,0,0-4.791-2.407L10.3,11.423H7.27a3,3,0,0,0-3,3v3.154a3,3,0,0,0,3,3H10.3l7.757,5.772a3,3,0,0,0,4.791-2.407V8.058Zm-2,0V23.942a1,1,0,0,1-1.6.8l-8.022-5.969a1,1,0,0,0-.6-.2H7.27a1,1,0,0,1-1-1V14.423a1,1,0,0,1,1-1h3.366a1,1,0,0,0,.6-.2l8.022-5.969a1,1,0,0,1,1.6.8Z" transform="translate(-4.27 -5.058)" fill-rule="evenodd"/>
  <path id="Path_162" data-name="Path 162" d="M24.582,13.6a2.853,2.853,0,0,1,0,4.575,1,1,0,1,0,1.2,1.6,4.852,4.852,0,0,0,0-7.778,1,1,0,1,0-1.2,1.6Z" transform="translate(-4.27 -5.058)" fill-rule="evenodd"/>
</svg>
