<svg width="27.581px" height="27.581px" viewBox="0 -2.85 27.581 27.581" id="_04_-_Volume_Medium" data-name="04 - Volume Medium" xmlns="http://www.w3.org/2000/svg">
  <path id="Path_158" data-name="Path 158" d="M21.07,8.058a3,3,0,0,0-4.791-2.407L8.523,11.423H5.489a3,3,0,0,0-3,3v3.154a3,3,0,0,0,3,3H8.523l7.756,5.772a3,3,0,0,0,4.791-2.407Zm-2,0V23.942a1,1,0,0,1-1.6.8L9.451,18.775a1,1,0,0,0-.6-.2H5.489a1,1,0,0,1-1-1V14.423a1,1,0,0,1,1-1H8.854a1,1,0,0,0,.6-.2l8.022-5.969a1,1,0,0,1,1.6.8Z" transform="translate(-2.489 -5.058)" fill-rule="evenodd"/>
  <path id="Path_159" data-name="Path 159" d="M23.515,13.6a2.853,2.853,0,0,1,0,4.575,1,1,0,1,0,1.2,1.6,4.853,4.853,0,0,0,0-7.778,1,1,0,1,0-1.2,1.6Z" transform="translate(-2.489 -5.058)" fill-rule="evenodd"/>
  <path id="Path_160" data-name="Path 160" d="M24.186,10.135a6.209,6.209,0,0,1,0,11.514,1,1,0,1,0,.75,1.854,8.209,8.209,0,0,0,0-15.222,1,1,0,0,0-.75,1.854Z" transform="translate(-2.489 -5.058)" fill-rule="evenodd"/>
</svg>
